<?xml version="1.0" standalone="no"?>
<!DOCTYPE svg PUBLIC "-//W3C//DTD SVG 20010904//EN"
 "http://www.w3.org/TR/2001/REC-SVG-20010904/DTD/svg10.dtd">
<svg version="1.0" xmlns="http://www.w3.org/2000/svg"
 width="159.000000pt" height="159.000000pt" viewBox="0 0 159.000000 159.000000"
 preserveAspectRatio="xMidYMid meet">
<metadata>
Created by potrace 1.11, written by Peter Selinger 2001-2013
</metadata>
<g transform="translate(0.000000,159.000000) scale(0.100000,-0.100000)"
fill="#000000" stroke="none">
<path d="M713 963 c-45 -47 -74 -70 -87 -68 -10 2 -39 8 -65 14 -25 5 -77 13
-114 16 -37 4 -76 8 -85 10 -65 12 -130 16 -136 7 -15 -24 99 -226 230 -411 2
-2 16 -3 31 -3 15 0 161 1 324 2 163 1 300 5 306 9 21 14 180 275 237 389 18
36 22 52 14 53 -47 5 -220 -19 -365 -52 l-92 -20 -44 43 c-93 92 -78 91 -154
11z m61 -91 c-1 -20 -2 -70 -3 -109 -1 -84 9 -82 -120 -21 l-70 34 17 26 c9
14 51 63 92 108 l75 82 6 -41 c3 -23 4 -58 3 -79z m153 -10 c34 -36 61 -67 60
-67 -1 -1 -27 -14 -57 -28 -30 -14 -72 -37 -92 -51 -21 -14 -39 -22 -42 -18
-5 9 -9 104 -7 211 l1 83 38 -32 c20 -18 65 -62 99 -98z m318 74 c-11 -7 -69
-39 -128 -70 l-109 -57 -29 28 c-42 40 -51 58 -31 61 9 1 70 12 134 24 64 13
132 25 150 26 31 2 32 2 13 -12z m72 -20 c-9 -13 -57 -97 -107 -187 -51 -90
-94 -166 -96 -168 -2 -2 -29 8 -59 23 -30 14 -93 40 -141 56 -96 32 -99 34
-89 50 7 11 339 176 341 169 0 -2 9 3 19 11 19 16 124 68 139 69 4 1 1 -10 -7
-23z m-810 -22 c33 -3 74 -9 92 -13 l33 -6 -22 -25 c-12 -14 -28 -33 -35 -43
-12 -17 -21 -14 -139 44 -130 65 -146 87 -46 63 31 -7 84 -16 117 -20z m-108
-46 c46 -27 88 -48 93 -48 5 0 26 -9 46 -20 54 -29 189 -90 201 -90 5 0 12 -4
15 -9 3 -5 -27 -19 -67 -32 -39 -12 -82 -29 -94 -37 -13 -8 -23 -11 -23 -7 0
4 -11 0 -23 -8 -13 -9 -40 -22 -59 -30 -35 -15 -36 -14 -49 11 -8 15 -16 29
-19 32 -3 3 -25 43 -49 90 -24 47 -54 99 -67 116 -13 17 -20 34 -17 38 4 3 2
6 -4 6 -8 0 -33 41 -33 55 0 9 72 -24 149 -67z m419 -198 c22 -11 45 -20 50
-20 5 0 22 -7 39 -15 16 -8 38 -16 49 -18 10 -2 33 -9 49 -16 17 -6 36 -14 44
-17 37 -13 -17 -16 -226 -15 -125 1 -242 3 -260 4 -33 2 -59 17 -30 17 10 0
25 4 35 9 9 5 55 24 102 42 47 18 89 36 95 41 11 10 4 11 53 -12z"/>
</g>
</svg>
