<?xml version="1.0" standalone="no"?>
<!DOCTYPE svg PUBLIC "-//W3C//DTD SVG 20010904//EN"
 "http://www.w3.org/TR/2001/REC-SVG-20010904/DTD/svg10.dtd">
<svg version="1.0" xmlns="http://www.w3.org/2000/svg"
 width="256.000000pt" height="256.000000pt" viewBox="0 0 256.000000 256.000000"
 preserveAspectRatio="xMidYMid meet">
<metadata>
Created by potrace 1.11, written by Peter Selinger 2001-2013
</metadata>
<g transform="translate(0.000000,256.000000) scale(0.100000,-0.100000)"
fill="#000000" stroke="none">
<path d="M1160 2499 c0 -40 -166 -390 -248 -524 -121 -196 -212 -314 -370
-478 -58 -60 -112 -110 -207 -190 l-30 -25 30 -8 c17 -4 35 -10 40 -13 6 -4
184 -65 397 -137 212 -71 385 -130 383 -132 -1 -1 -209 -3 -461 -2 -277 0
-465 -4 -474 -10 -11 -7 -15 -27 -14 -77 0 -75 23 -122 86 -183 64 -62 247
-170 378 -224 8 -3 -7 -4 -35 -2 -54 4 -181 45 -216 69 -19 14 -24 13 -54 -5
-87 -51 -168 -67 -350 -68 -13 0 -14 -149 -1 -169 7 -10 31 -12 110 -8 115 7
186 25 235 61 l34 26 46 -24 c25 -13 55 -27 66 -31 138 -49 328 -36 439 30
l39 24 56 -29 c148 -77 368 -74 500 8 l34 21 56 -29 c130 -68 306 -74 446 -17
28 11 58 27 67 35 15 13 22 11 61 -11 68 -40 170 -65 260 -62 42 1 80 4 83 7
3 3 6 44 8 91 l3 86 -68 -6 c-86 -7 -180 11 -262 51 l-65 31 -54 -27 c-82 -42
-175 -61 -269 -55 -44 3 -86 10 -92 16 -8 8 -8 11 2 11 20 0 203 94 282 145
219 142 378 311 297 316 -13 1 -39 3 -58 4 -19 2 -74 3 -121 4 l-86 1 -6 58
c-8 73 -12 97 -26 152 -6 25 -14 54 -16 65 -9 40 -55 168 -91 253 -71 167
-188 372 -307 538 -79 110 -228 297 -233 292 -2 -2 3 -35 10 -73 25 -130 37
-210 43 -300 23 -342 -25 -605 -138 -766 l-18 -26 375 -94 376 -94 -423 -3
c-232 -1 -423 -1 -425 1 -2 1 -4 343 -5 760 -1 416 -6 757 -10 757 -5 0 -9 -5
-9 -11z"/>
<path d="M355 259 c-59 -37 -137 -56 -240 -58 -54 -1 -102 -4 -105 -6 -3 -2
-5 -32 -4 -67 3 -121 -10 -108 104 -108 108 0 196 22 253 62 l28 20 67 -30
c37 -17 89 -36 117 -42 62 -14 205 -11 259 5 49 15 134 54 141 65 3 5 29 -5
58 -21 72 -39 157 -59 247 -59 90 0 175 20 247 59 29 16 55 26 57 22 5 -7 66
-38 121 -61 17 -7 77 -15 135 -17 116 -6 181 7 273 54 l49 25 62 -30 c33 -17
88 -35 120 -41 71 -13 176 -14 194 -2 10 6 15 35 16 95 3 80 1 86 -16 80 -22
-7 -154 -7 -187 0 -47 10 -97 29 -142 53 l-46 24 -59 -29 c-148 -74 -308 -73
-480 3 l-54 24 -58 -29 c-89 -44 -139 -53 -260 -48 -88 4 -118 10 -172 33 -36
16 -70 33 -77 38 -8 5 -34 -2 -75 -21 -155 -73 -325 -73 -470 -1 -67 34 -64
33 -103 8z"/>
</g>
</svg>
